# xmcd CD database file
#
# Track frame offsets:
#	150
#	16177
#	32584
#	51758
#	76338
#	96355
#	124194
#	146419
#	176856
#	200225
#	226835
#
# Disc length: 3197 seconds
#
# Revision: 0
# Processed by: cddbd v1.5PL3 Copyright (c) Steve Scherf et al.
# Submitted via: CDex 1.50beta8
#
DISCID=900c7b0b
DTITLE=GO!GO!7188 - 蛇足歩行
DYEAR=2000
DGENRE=JPop
TTITLE0=ジェットにんぢん
TTITLE1=ゆげ
TTITLE2=行方不明
TTITLE3=太陽
TTITLE4=彼女と私
TTITLE5=こいのうた
TTITLE6=西部
TTITLE7=ぬかるみ
TTITLE8=ロック
TTITLE9=パンク
TTITLE10=こがねむし-カレーライス-
EXTD=YEAR: 2000
EXTT0=
EXTT1=
EXTT2=
EXTT3=
EXTT4=
EXTT5=
EXTT6=
EXTT7=
EXTT8=
EXTT9=
EXTT10=
PLAYORDER=
